<svg width="36" height="34" xmlns="http://www.w3.org/2000/svg" xmlns:xlink="http://www.w3.org/1999/xlink" xml:space="preserve" overflow="hidden"><defs><clipPath id="clip0"><path d="M1074.21 332.883 1102.19 340.305 1095.49 365.529 1067.52 358.107Z" fill-rule="evenodd" clip-rule="evenodd"/></clipPath><clipPath id="clip1"><path d="M1074.21 332.883 1102.19 340.305 1095.49 365.529 1067.52 358.107Z" fill-rule="evenodd" clip-rule="evenodd"/></clipPath><clipPath id="clip2"><path d="M1074.21 332.883 1102.19 340.305 1095.49 365.529 1067.52 358.107Z" fill-rule="evenodd" clip-rule="evenodd"/></clipPath></defs><g transform="translate(-1067 -332)"><g clip-path="url(#clip0)"><g clip-path="url(#clip1)"><g clip-path="url(#clip2)"><path d="M20.089 13.4017C20.5783 15.3862 18.5395 17.3434 16.5279 16.5279 14.8425 15.9299 14.1901 13.9726 15.359 12.2872 17.9958 8.78045 16.0658 3.26209 11.6891 1.3592 13.6736 5.1106 10.629 8.56298 8.88919 10.0037 7.14941 11.4445 5.98049 12.9396 5.6271 13.8095 3.86014 18.1046 6.49699 22.2094 8.29114 23.188 7.47562 21.3395 6.71446 17.8056 9.92218 14.4891 9.92218 14.4891 8.99792 18.023 11.0095 20.4696 13.0212 22.9162 12.994 24.7375 12.994 24.7375 16.1201 24.7375 19.0832 22.8618 20.3337 19.79 21.2851 17.9687 21.3667 15.0872 20.089 13.4017" stroke="#E97132" stroke-width="0.362454" fill="#E97132" transform="matrix(1.07202 0.284379 -0.256407 0.966569 1074.21 332.883)"/></g></g></g></g></svg>