<svg width="290" height="96" viewBox="0 0 290 96" xmlns="http://www.w3.org/2000/svg">
  <g fill="#ffffff">
    <path d="M66.8456 0 0 95.4876 14.3317 95.4876 81.1773 0 66.8456 0Z"/>
    <path d="M285.824 58.2636 259.759 95.4876 245.427 95.4876 285.781 37.8629C285.781 37.8629 285.973 58.2636 285.824 58.2636Z"/>
    <path d="M230.371 0 163.526 95.4876 177.857 95.4876 244.639 0 230.371 0Z"/>
    <path d="M148.811 0 81.9652 95.4876 96.2969 95.4876 163.079 0 148.811 0Z"/>
    <path d="M271.365 0 204.519 95.4876 218.851 95.4876 285.632 0 271.365 0Z"/>
    <path d="M189.463 0 122.596 95.4876 136.928 95.4876 203.774 0 189.463 0Z"/>
    <path d="M107.903 0 41.0571 95.4876 55.3888 95.4876 122.234 0 107.903 0Z"/>
  </g>
</svg>
